<svg width="592" height="123" viewBox="0 0 592 123" fill="none" xmlns="http://www.w3.org/2000/svg">
<path d="M4.23999 16.83C7.05999 11.72 10.9201 7.73994 15.8201 4.87994C20.7101 2.02994 26.1701 0.599976 32.1901 0.599976C39.5301 0.599976 45.82 2.33995 51.05 5.81995C56.29 9.29995 60.1001 14.21 62.4801 20.55H54.76C52.88 16.1 50.01 12.61 46.15 10.11C42.29 7.59999 37.6401 6.34998 32.1801 6.34998C27.3501 6.34998 23.01 7.47999 19.15 9.73999C15.29 12 12.2701 15.24 10.0701 19.48C7.87007 23.71 6.78003 28.62 6.78003 34.2C6.78003 39.78 7.87007 44.6799 10.0701 48.8799C12.2701 53.0799 15.29 56.3099 19.15 58.5699C23.01 60.8299 27.3501 61.96 32.1801 61.96C37.6401 61.96 42.3 60.72 46.15 58.24C50.01 55.76 52.88 52.33 54.76 47.94H62.4801C60.1001 54.21 56.27 59.08 51 62.52C45.73 65.97 39.4601 67.7 32.1801 67.7C26.1601 67.7 20.7001 66.27 15.8101 63.42C10.9201 60.57 7.0601 56.6 4.2301 51.52C1.4001 46.44 0 40.67 0 34.21C0 27.75 1.4101 21.96 4.2301 16.85L4.23999 16.83Z" fill="white"/>
<path d="M174.55 0.599976V6.15997H147.94V67.66H141.22V6.15997H114.52V0.599976H174.55Z" fill="white"/>
<path d="M183.29 16.83C186.11 11.72 189.97 7.73995 194.86 4.88995C199.75 2.03995 205.21 0.609985 211.23 0.609985C218.57 0.609985 224.85 2.34996 230.09 5.82996C235.33 9.30996 239.14 14.22 241.52 20.55H233.81C231.93 16.1 229.06 12.62 225.2 10.11C221.34 7.59999 216.69 6.34998 211.23 6.34998C206.4 6.34998 202.06 7.47999 198.2 9.73999C194.34 12 191.32 15.24 189.12 19.48C186.92 23.71 185.83 28.62 185.83 34.2C185.83 39.78 186.92 44.67 189.12 48.87C191.31 53.07 194.34 56.3 198.2 58.56C202.06 60.82 206.4 61.95 211.23 61.95C216.69 61.95 221.34 60.71 225.2 58.24C229.06 55.76 231.93 52.33 233.81 47.94H241.52C239.14 54.21 235.31 59.07 230.05 62.52C224.78 65.97 218.51 67.69 211.24 67.69C205.22 67.69 199.77 66.26 194.87 63.41C189.98 60.56 186.12 56.5899 183.3 51.5099C180.48 46.4299 179.07 40.66 179.07 34.2C179.07 27.74 180.48 21.96 183.3 16.85L183.29 16.83Z" fill="white"/>
<path d="M295.81 0.599976V67.71H289.09V36.34H252.73V67.71H246.01V0.599976H252.73V30.77H289.09V0.599976H295.81Z" fill="white"/>
<path d="M67.1602 67.69L92.5802 0.599976H100.26L125.68 67.69H118.39L96.4202 7.91998L74.2601 67.69H67.1602Z" fill="white"/>
<path d="M364.55 0.569946V11.56H341.37V67.69H327.94V11.56H304.77V0.569946H364.55Z" fill="white"/>
<path d="M481.29 39.09C483.72 42.16 484.93 45.68 484.93 49.64C484.93 53.22 484.05 56.37 482.29 59.09C480.53 61.81 477.99 63.93 474.66 65.47C471.33 67 467.4 67.77 462.86 67.77H433.98V0.560059H461.61C466.15 0.560059 470.07 1.54001 473.36 3.01001C476.65 4.48001 479.15 6.53002 480.85 9.15002C482.54 11.77 483.39 14.75 483.39 18.07C483.39 21.97 482.35 25.23 480.27 27.86C478.19 30.48 475.43 32.34 471.97 33.42C475.74 34.13 478.84 36.01 481.28 39.08L481.29 39.09ZM447.43 28.4401H459.71C462.91 28.4401 465.37 27.72 467.1 26.28C468.83 24.84 469.69 22.78 469.69 20.09C469.69 17.4 468.83 15.33 467.1 13.85C465.37 12.38 462.91 11.64 459.71 11.64H447.43V28.4301V28.4401ZM468.58 54.53C470.4 52.99 471.32 50.82 471.32 48.01C471.32 45.2 470.36 42.8801 468.44 41.2501C466.52 39.6201 463.93 38.8 460.67 38.8H447.43V56.84H460.96C464.22 56.84 466.77 56.07 468.59 54.54L468.58 54.53Z" fill="white"/>
<path d="M507.38 56.98H538.13V67.6299H493.94V0.569946H507.37V56.98H507.38Z" fill="white"/>
<path d="M560.58 11.5V28.29H591.33V38.94H560.58V56.69H591.33V67.6299H547.14V0.569946H591.33V11.5099H560.58V11.5Z" fill="white"/>
<path d="M356.1 67.73L380.66 0.569946H396.97L421.53 67.73H407.14L388.72 14.48L370.4 67.73H356.1Z" fill="white"/>
<path d="M447.42 122.19C425.95 122.19 405.75 113.82 390.55 98.62L386.25 94.3199L394.85 85.72L399.15 90.02C412.05 102.92 429.19 110.03 447.41 110.03C465.63 110.03 482.77 102.92 495.67 90.02L499.97 85.72L508.57 94.3199L504.27 98.62C489.07 113.82 468.87 122.19 447.4 122.19H447.42Z" fill="white"/>
</svg>
